<?xml version="1.0" encoding="iso-8859-1"?>
<!-- Generator: Adobe Illustrator 16.0.0, SVG Export Plug-In . SVG Version: 6.00 Build 0)  -->
<!DOCTYPE svg PUBLIC "-//W3C//DTD SVG 1.1//EN" "http://www.w3.org/Graphics/SVG/1.1/DTD/svg11.dtd">
<svg version="1.1" id="&#x56FE;&#x5C42;_1" xmlns="http://www.w3.org/2000/svg" xmlns:xlink="http://www.w3.org/1999/xlink" x="0px"
	 y="0px" width="86px" height="100px" viewBox="0 0 86 100" style="enable-background:new 0 0 86 100;" xml:space="preserve">
<path style="fill-rule:evenodd;clip-rule:evenodd;fill:#1FB5AE;" d="M79.384,100H6.615C2.962,100,0,96.912,0,93.104V17.241
	c0-3.809,2.962-6.896,6.615-6.896h6.616v3.449c0,5.712,4.442,10.344,9.923,10.344c5.48,0,9.923-4.631,9.923-10.344v-3.449h19.846
	v3.449c0,5.712,4.442,10.344,9.923,10.344s9.923-4.631,9.923-10.344v-3.449h6.615c3.654,0,6.616,3.087,6.616,6.896v75.863
	C86,96.912,83.038,100,79.384,100z M79.384,34.483H6.615v58.621h72.769V34.483z M23.154,51.724h-9.923V41.379h9.923V51.724z
	 M23.154,68.966h-9.923V58.621h9.923V68.966z M23.154,86.207h-9.923V75.862h9.923V86.207z M39.692,51.724H29.77V41.379h9.922V51.724
	z M39.692,68.966H29.77V58.621h9.922V68.966z M39.692,86.207H29.77V75.862h9.922V86.207z M56.231,51.724h-9.923V41.379h9.923V51.724
	z M56.231,68.966h-9.923V58.621h9.923V68.966z M56.231,86.207h-9.923V75.862h9.923V86.207z M72.77,51.724h-9.923V41.379h9.923
	V51.724z M72.77,68.966h-9.923V58.621h9.923V68.966z M72.77,86.207h-9.923V75.862h9.923V86.207z M62.743,20.689
	c-3.597,0-6.512-3.04-6.512-6.789V6.788C56.231,3.04,59.146,0,62.743,0c3.596,0,6.512,3.04,6.512,6.788V13.9
	C69.255,17.649,66.339,20.689,62.743,20.689z M23.051,20.689c-3.597,0-6.513-3.04-6.513-6.789V6.788C16.538,3.04,19.454,0,23.051,0
	c3.596,0,6.512,3.04,6.512,6.788V13.9C29.563,17.649,26.647,20.689,23.051,20.689z"/>
</svg>
