<?xml version="1.0" encoding="iso-8859-1"?>
<!-- Generator: Adobe Illustrator 16.0.0, SVG Export Plug-In . SVG Version: 6.00 Build 0)  -->
<!DOCTYPE svg PUBLIC "-//W3C//DTD SVG 1.1//EN" "http://www.w3.org/Graphics/SVG/1.1/DTD/svg11.dtd">
<svg version="1.1" id="&#x56FE;&#x5C42;_1" xmlns="http://www.w3.org/2000/svg" xmlns:xlink="http://www.w3.org/1999/xlink" x="0px"
	 y="0px" width="100.005px" height="100.072px" viewBox="0 0 100.005 100.072" style="enable-background:new 0 0 100.005 100.072;"
	 xml:space="preserve">
<path style="fill-rule:evenodd;clip-rule:evenodd;fill:none;" d="M7.807,81.717L81.65,7.874c5.826-5.826,9.997-11.1,15.823-5.274
	s0.551,9.998-5.275,15.824L18.356,92.265c-5.826,5.826-9.997,11.101-15.823,5.274C-3.293,91.714,1.98,87.543,7.807,81.717z"/>
<path style="fill-rule:evenodd;clip-rule:evenodd;fill:#AEA89F;" d="M18.258,7.875L92.1,81.718
	c5.826,5.826,11.076,10.022,5.511,15.587c-5.566,5.565-9.762,0.315-15.588-5.511L8.182,17.953C2.355,12.126-2.895,7.93,2.67,2.365
	C8.236-3.2,12.432,2.049,18.258,7.875z"/>
</svg>
