<?xml version="1.0" encoding="iso-8859-1"?>
<!-- Generator: Adobe Illustrator 16.0.0, SVG Export Plug-In . SVG Version: 6.00 Build 0)  -->
<!DOCTYPE svg PUBLIC "-//W3C//DTD SVG 1.1//EN" "http://www.w3.org/Graphics/SVG/1.1/DTD/svg11.dtd">
<svg version="1.1" id="&#x56FE;&#x5C42;_1" xmlns="http://www.w3.org/2000/svg" xmlns:xlink="http://www.w3.org/1999/xlink" x="0px"
	 y="0px" width="65px" height="100px" viewBox="0 0 65 100" style="enable-background:new 0 0 65 100;" xml:space="preserve">
<path style="fill-rule:evenodd;clip-rule:evenodd;fill:#1FB5AE;" d="M56.875,100H8.125C3.638,100,0,96.268,0,91.667V8.333
	C0,3.731,3.638,0,8.125,0h48.75C61.362,0,65,3.731,65,8.333v83.334C65,96.268,61.362,100,56.875,100z M32.415,93.75
	c2.244,0,4.063-1.866,4.063-4.167c0-2.301-1.819-4.167-4.063-4.167c-2.243,0-4.062,1.866-4.062,4.167
	C28.353,91.884,30.171,93.75,32.415,93.75z M40.626,8.333h-16.25v8.333h16.25V8.333z M56.876,25.001H8.126v50h48.75V25.001z"/>
</svg>
