<?xml version="1.0" encoding="iso-8859-1"?>
<!-- Generator: Adobe Illustrator 16.0.0, SVG Export Plug-In . SVG Version: 6.00 Build 0)  -->
<!DOCTYPE svg PUBLIC "-//W3C//DTD SVG 1.1//EN" "http://www.w3.org/Graphics/SVG/1.1/DTD/svg11.dtd">
<svg version="1.1" id="&#x56FE;&#x5C42;_1" xmlns="http://www.w3.org/2000/svg" xmlns:xlink="http://www.w3.org/1999/xlink" x="0px"
	 y="0px" width="99.906px" height="99.907px" viewBox="0 0 99.906 99.907" style="enable-background:new 0 0 99.906 99.907;"
	 xml:space="preserve">
<path style="fill-rule:evenodd;clip-rule:evenodd;fill:#FFFFFF;" d="M97.667,97.667c-2.984,2.985-7.824,2.985-10.809,0l-18.81-18.81
	c-16.889,11.781-40.293,10.149-55.362-4.92c-16.915-16.914-16.915-44.338,0-61.252c16.914-16.914,44.338-16.914,61.252,0
	c15.069,15.069,16.701,38.474,4.919,55.362l18.81,18.811C100.652,89.843,100.652,94.683,97.667,97.667z M66.732,19.892
	c-12.935-12.935-33.906-12.935-46.84,0c-12.935,12.934-12.935,33.905,0,46.84c12.935,12.935,33.906,12.935,46.84,0
	C79.666,53.797,79.666,32.826,66.732,19.892z"/>
</svg>
