<?xml version="1.0" encoding="iso-8859-1"?>
<!-- Generator: Adobe Illustrator 16.0.0, SVG Export Plug-In . SVG Version: 6.00 Build 0)  -->
<!DOCTYPE svg PUBLIC "-//W3C//DTD SVG 1.1//EN" "http://www.w3.org/Graphics/SVG/1.1/DTD/svg11.dtd">
<svg version="1.1" id="&#x56FE;&#x5C42;_1" xmlns="http://www.w3.org/2000/svg" xmlns:xlink="http://www.w3.org/1999/xlink" x="0px"
	 y="0px" width="100.01px" height="75.015px" viewBox="0 0 100.01 75.015" style="enable-background:new 0 0 100.01 75.015;"
	 xml:space="preserve">
<path style="fill-rule:evenodd;clip-rule:evenodd;fill:none;" d="M85.053,74.888c9.314-10.024,14.957-22.979,14.957-37.478
	c0-14.466-5.712-27.394-14.989-37.41l-4.378,5.08c8.167,8.518,13.341,19.868,13.341,32.33c0,12.444-5.159,23.78-13.305,32.294
	L85.053,74.888z"/>
<path style="fill-rule:evenodd;clip-rule:evenodd;fill:none;" d="M73.201,64.56c7.244-7.071,11.613-16.477,11.613-27.151
	c0-10.48-4.399-20-11.411-27.035l-3.902,5.356c5.791,5.555,9.465,13.217,9.465,21.677c0,8.63-3.82,16.43-9.818,22.011L73.201,64.56z
	"/>
<path style="fill-rule:evenodd;clip-rule:evenodd;fill:none;" d="M62.109,53.417c4.597-3.936,7.487-9.651,7.487-16.011
	c0-6.446-2.97-12.23-7.674-16.169l-3.113,6.066c2.977,2.438,4.863,6.056,4.863,10.095c0,4.449-1.055,8.479-4.569,10.891
	L62.109,53.417z"/>
<path style="fill-rule:evenodd;clip-rule:evenodd;fill:#FFFFFF;" d="M42.021,75.015L15.672,57.474V17.671L42.021,0.319
	c3.475,0,8.452,2.51,8.452,5.607v63.481C50.473,72.504,45.496,75.015,42.021,75.015z M12.738,56.885H6.291
	C2.816,56.885,0,52.914,0,49.817V25.516c0-3.097,2.816-7.497,6.291-7.497h6.448V56.885z"/>
</svg>
