<?xml version="1.0" encoding="iso-8859-1"?>
<!-- Generator: Adobe Illustrator 16.0.0, SVG Export Plug-In . SVG Version: 6.00 Build 0)  -->
<!DOCTYPE svg PUBLIC "-//W3C//DTD SVG 1.1//EN" "http://www.w3.org/Graphics/SVG/1.1/DTD/svg11.dtd">
<svg version="1.1" id="&#x56FE;&#x5C42;_1" xmlns="http://www.w3.org/2000/svg" xmlns:xlink="http://www.w3.org/1999/xlink" x="0px"
	 y="0px" width="82.884px" height="100.006px" viewBox="0 0 82.884 100.006" style="enable-background:new 0 0 82.884 100.006;"
	 xml:space="preserve">
<path style="fill-rule:evenodd;clip-rule:evenodd;fill:#84898C;" d="M81.182,24.477l-38.837,48.23c0,0-26.72-30.03-37.594-44.893
	S5.076,0,5.076,0l37.269,45.103L77.076,0C87.018,12.437,81.182,24.477,81.182,24.477z M42.345,53.596c-2.574,0-4.66,2.037-4.66,4.55
	c0,2.512,2.086,4.55,4.66,4.55c2.574,0,4.661-2.038,4.661-4.55C47.005,55.633,44.918,53.596,42.345,53.596z M21.217,64.82
	c9.953,0,18.021,7.876,18.021,17.593c0,9.717-8.068,17.593-18.021,17.593c-9.952,0-18.021-7.876-18.021-17.593
	C3.197,72.696,11.265,64.82,21.217,64.82z M21.527,91.609c5.544,0,10.038-4.409,10.038-9.847c0-5.438-4.494-9.847-10.038-9.847
	c-5.543,0-10.038,4.409-10.038,9.847C11.489,87.2,15.983,91.609,21.527,91.609z M64.148,64.82c9.953,0,18.021,7.876,18.021,17.593
	c0,9.717-8.067,17.593-18.021,17.593c-9.952,0-18.02-7.876-18.02-17.593C46.128,72.696,54.196,64.82,64.148,64.82z M64.458,91.609
	c5.544,0,10.038-4.409,10.038-9.847c0-5.438-4.494-9.847-10.038-9.847s-10.039,4.409-10.039,9.847
	C54.419,87.2,58.914,91.609,64.458,91.609z"/>
</svg>
