<?xml version="1.0" encoding="iso-8859-1"?>
<!-- Generator: Adobe Illustrator 16.0.0, SVG Export Plug-In . SVG Version: 6.00 Build 0)  -->
<!DOCTYPE svg PUBLIC "-//W3C//DTD SVG 1.1//EN" "http://www.w3.org/Graphics/SVG/1.1/DTD/svg11.dtd">
<svg version="1.1" id="&#x56FE;&#x5C42;_1" xmlns="http://www.w3.org/2000/svg" xmlns:xlink="http://www.w3.org/1999/xlink" x="0px"
	 y="0px" width="99.979px" height="83.994px" viewBox="0 0 99.979 83.994" style="enable-background:new 0 0 99.979 83.994;"
	 xml:space="preserve">
<path style="fill-rule:evenodd;clip-rule:evenodd;fill:#84898C;" d="M7.381,13.556c0-1.762,1.434-3.202,3.188-3.202h4.825
	l3.686-7.483C19.856,1.292,21.929,0,23.683,0h20.148c1.754,0,3.82,1.295,4.589,2.876l3.637,7.479h37.352
	c1.755,0,3.188,1.439,3.188,3.202v1.203H7.381V13.556z M92.597,80.791c0,1.763-1.434,3.203-3.188,3.203H10.57
	c-1.754,0-3.188-1.44-3.188-3.203L0,22.2h99.979L92.597,80.791z M51.156,42v6.794H26.319v12.665h24.837v6.794l22.526-13.126
	L51.156,42z"/>
</svg>
