<?xml version="1.0" encoding="iso-8859-1"?>
<!-- Generator: Adobe Illustrator 16.0.0, SVG Export Plug-In . SVG Version: 6.00 Build 0)  -->
<!DOCTYPE svg PUBLIC "-//W3C//DTD SVG 1.1//EN" "http://www.w3.org/Graphics/SVG/1.1/DTD/svg11.dtd">
<svg version="1.1" id="&#x56FE;&#x5C42;_1" xmlns="http://www.w3.org/2000/svg" xmlns:xlink="http://www.w3.org/1999/xlink" x="0px"
	 y="0px" width="100px" height="100px" viewBox="0 0 100 100" style="enable-background:new 0 0 100 100;" xml:space="preserve">
<path style="fill-rule:evenodd;clip-rule:evenodd;fill:#898E92;" d="M50,100C22.386,100,0,77.614,0,50C0,22.386,22.386,0,50,0
	c27.615,0,50,22.386,50,50C100,77.614,77.615,100,50,100z M33.021,24.271c-3.452,0-6.25,3.731-6.25,8.333s2.799,8.333,6.25,8.333
	c3.451,0,6.25-3.73,6.25-8.333S36.473,24.271,33.021,24.271z M66.667,24.219c-3.452,0-6.25,3.73-6.25,8.333s2.798,8.334,6.25,8.334
	c3.451,0,6.25-3.731,6.25-8.334S70.118,24.219,66.667,24.219z M76.011,50.651c-3.274,14.41-12.128,21.614-26.563,21.614
	c-14.438,0-23.291-7.204-26.563-21.614h-4.037c2.058,18.624,13.523,29.817,30.63,29.817c17.105,0,28.639-11.193,30.698-29.817
	H76.011z"/>
</svg>
