<?xml version="1.0" encoding="iso-8859-1"?>
<!-- Generator: Adobe Illustrator 16.0.0, SVG Export Plug-In . SVG Version: 6.00 Build 0)  -->
<!DOCTYPE svg PUBLIC "-//W3C//DTD SVG 1.1//EN" "http://www.w3.org/Graphics/SVG/1.1/DTD/svg11.dtd">
<svg version="1.1" id="&#x56FE;&#x5C42;_1" xmlns="http://www.w3.org/2000/svg" xmlns:xlink="http://www.w3.org/1999/xlink" x="0px"
	 y="0px" width="100.009px" height="75.015px" viewBox="0 0 100.009 75.015" style="enable-background:new 0 0 100.009 75.015;"
	 xml:space="preserve">
<path style="fill-rule:evenodd;clip-rule:evenodd;fill:#787574;" d="M86.714,74.887l-3.888-5.185
	c7.241-8.515,11.826-19.849,11.826-32.294c0-12.461-4.598-23.812-11.858-32.33L86.686,0c8.246,10.016,13.324,22.944,13.324,37.409
	C100.009,51.908,94.993,64.863,86.714,74.887z M76.179,64.56l-3.603-5.142c5.332-5.581,8.728-13.38,8.728-22.011
	c0-8.459-3.267-16.122-8.414-21.677l3.469-5.357c6.232,7.036,10.142,16.555,10.142,27.035C86.501,48.083,82.617,57.488,76.179,64.56
	z M66.319,53.417l-2.672-5.129c3.124-2.412,4.062-6.441,4.062-10.89c0-4.04-1.677-7.658-4.323-10.095l2.768-6.066
	c4.182,3.939,6.821,9.723,6.821,16.169C72.975,43.765,70.405,49.481,66.319,53.417z M48.463,75.015L25.042,57.474V17.671
	L48.463,0.318c3.088,0,7.513,2.511,7.513,5.608v63.481C55.977,72.504,51.551,75.015,48.463,75.015z M0,49.817V25.516
	c0-3.098,2.503-7.498,5.592-7.498h16.843v38.866H5.592C2.503,56.885,0,52.914,0,49.817z"/>
</svg>
