<?xml version="1.0" encoding="iso-8859-1"?>
<!-- Generator: Adobe Illustrator 16.0.0, SVG Export Plug-In . SVG Version: 6.00 Build 0)  -->
<!DOCTYPE svg PUBLIC "-//W3C//DTD SVG 1.1//EN" "http://www.w3.org/Graphics/SVG/1.1/DTD/svg11.dtd">
<svg version="1.1" id="&#x56FE;&#x5C42;_1" xmlns="http://www.w3.org/2000/svg" xmlns:xlink="http://www.w3.org/1999/xlink" x="0px"
	 y="0px" width="99.986px" height="99.872px" viewBox="0 0 99.986 99.872" style="enable-background:new 0 0 99.986 99.872;"
	 xml:space="preserve">
<path style="fill-rule:evenodd;clip-rule:evenodd;fill:#19B0A9;" d="M45.71,1.51c-3.48,0-2.945,1.527-4.818,1.79
	c-1.874,0.263,0.379-0.738-5.242,0.313c-5.621,1.051-7.607,8.146-7.875,10.775s-0.334,10.015-0.156,13.957
	c0.536,2.365-1.338,2.365-1.338,2.365c-3.368-0.212-1.854,10.092-1.854,10.092c0.484,2.54-0.174,3.805,4.813,5.772
	c2.376,6.643,8.583,10.157,8.583,10.157s0.031,4.101,0.125,7.135c-0.507-0.248,1.733,7.755-13.759,10.001
	c-15.493,2.242-18.459,7.17-21.38,9.912C-0.113,86.523,0,99.82,0,99.82l99.986,0.052c0,0-0.743-13.349-3.664-16.093
	c-2.921-2.742-6.103-7.669-21.595-9.912c-15.062-2.14-12.586-10.031-12.692-10.505c0.027-1.195,0.19-6.266,0.19-6.266
	s5.26-4.076,7.635-10.721c3.738-2.316,5.162-2.64,5.78-5.31c0,0,1.1-10.411-2.43-10.358c0,0-1.672,0.528-1.137-1.837
	c0.535-2.365,0.357-9.752,0.089-12.38c-0.268-2.628,0.136-10.139-5.485-11.19c-3.836-0.701-4.337-0.007-6.211-0.27
	C58.594,4.766,56.363,0,52.883,0L45.71,1.51z"/>
</svg>
